<mxfile host="app.diagrams.net" agent="Mozilla/5.0 (Windows NT 10.0; Win64; x64) AppleWebKit/537.36 (KHTML, like Gecko) Chrome/130.0.0.0 Safari/537.36" version="24.8.4">
  <diagram name="第 1 页" id="S1-SRW5R_I7AIT8XGbwp">
    <mxGraphModel dx="544" dy="277" grid="1" gridSize="10" guides="1" tooltips="1" connect="1" arrows="1" fold="1" page="1" pageScale="1" pageWidth="3300" pageHeight="2339" math="1" shadow="0">
      <root>
        <mxCell id="0" />
        <mxCell id="1" parent="0" />
        <mxCell id="Kq4fyCAR996_0g_bX0aU-93" value="" style="group" vertex="1" connectable="0" parent="1">
          <mxGeometry x="385" y="180" width="310" height="40" as="geometry" />
        </mxCell>
        <mxCell id="Kq4fyCAR996_0g_bX0aU-89" value="" style="endArrow=classic;html=1;rounded=0;strokeColor=#0000FF;align=center;verticalAlign=middle;fontFamily=Helvetica;fontSize=11;fontColor=default;labelBackgroundColor=default;fillColor=#cdeb8b;" edge="1" parent="Kq4fyCAR996_0g_bX0aU-93">
          <mxGeometry width="50" height="50" relative="1" as="geometry">
            <mxPoint y="19.860000000000014" as="sourcePoint" />
            <mxPoint x="20" y="19.860000000000014" as="targetPoint" />
          </mxGeometry>
        </mxCell>
        <mxCell id="Kq4fyCAR996_0g_bX0aU-90" value="&lt;span style=&quot;font-size: 14px;&quot;&gt;$$: Q\quad \mathrm{projector} $$&lt;/span&gt;" style="rounded=1;whiteSpace=wrap;html=1;fillColor=none;strokeColor=none;fontStyle=1" vertex="1" parent="Kq4fyCAR996_0g_bX0aU-93">
          <mxGeometry x="30" width="100" height="40" as="geometry" />
        </mxCell>
        <mxCell id="Kq4fyCAR996_0g_bX0aU-91" value="" style="endArrow=classic;html=1;rounded=0;strokeColor=#66CC00;align=center;verticalAlign=middle;fontFamily=Helvetica;fontSize=11;fontColor=default;labelBackgroundColor=default;fillColor=#e1d5e7;" edge="1" parent="Kq4fyCAR996_0g_bX0aU-93">
          <mxGeometry width="50" height="50" relative="1" as="geometry">
            <mxPoint x="150" y="19.80000000000001" as="sourcePoint" />
            <mxPoint x="170" y="19.80000000000001" as="targetPoint" />
          </mxGeometry>
        </mxCell>
        <mxCell id="Kq4fyCAR996_0g_bX0aU-92" value="&lt;span style=&quot;font-size: 14px;&quot;&gt;$$: K \&amp;amp;V \quad \mathrm{projector} $$&lt;/span&gt;" style="rounded=1;whiteSpace=wrap;html=1;fillColor=none;strokeColor=none;fontStyle=1" vertex="1" parent="Kq4fyCAR996_0g_bX0aU-93">
          <mxGeometry x="180" width="130" height="40" as="geometry" />
        </mxCell>
        <mxCell id="Kq4fyCAR996_0g_bX0aU-94" value="" style="group" vertex="1" connectable="0" parent="1">
          <mxGeometry x="320" y="40" width="440" height="140" as="geometry" />
        </mxCell>
        <mxCell id="Kq4fyCAR996_0g_bX0aU-1" value="" style="group;fillColor=#dae8fc;strokeColor=#6c8ebf;" vertex="1" connectable="0" parent="Kq4fyCAR996_0g_bX0aU-94">
          <mxGeometry x="40" width="60" height="60" as="geometry" />
        </mxCell>
        <mxCell id="Kq4fyCAR996_0g_bX0aU-2" value="" style="rounded=0;whiteSpace=wrap;html=1;fillColor=#dae8fc;strokeColor=#6c8ebf;" vertex="1" parent="Kq4fyCAR996_0g_bX0aU-1">
          <mxGeometry width="20" height="20" as="geometry" />
        </mxCell>
        <mxCell id="Kq4fyCAR996_0g_bX0aU-3" value="" style="rounded=0;whiteSpace=wrap;html=1;fillColor=#dae8fc;strokeColor=#6c8ebf;" vertex="1" parent="Kq4fyCAR996_0g_bX0aU-1">
          <mxGeometry x="20" width="20" height="20" as="geometry" />
        </mxCell>
        <mxCell id="Kq4fyCAR996_0g_bX0aU-4" value="" style="rounded=0;whiteSpace=wrap;html=1;fillColor=#dae8fc;strokeColor=#6c8ebf;" vertex="1" parent="Kq4fyCAR996_0g_bX0aU-1">
          <mxGeometry x="20" y="20" width="20" height="20" as="geometry" />
        </mxCell>
        <mxCell id="Kq4fyCAR996_0g_bX0aU-5" value="" style="rounded=0;whiteSpace=wrap;html=1;fillColor=#dae8fc;strokeColor=#6c8ebf;" vertex="1" parent="Kq4fyCAR996_0g_bX0aU-1">
          <mxGeometry y="20" width="20" height="20" as="geometry" />
        </mxCell>
        <mxCell id="Kq4fyCAR996_0g_bX0aU-6" value="" style="rounded=0;whiteSpace=wrap;html=1;fillColor=#dae8fc;strokeColor=#6c8ebf;" vertex="1" parent="Kq4fyCAR996_0g_bX0aU-1">
          <mxGeometry x="40" y="40" width="20" height="20" as="geometry" />
        </mxCell>
        <mxCell id="Kq4fyCAR996_0g_bX0aU-7" value="" style="rounded=0;whiteSpace=wrap;html=1;fillColor=#dae8fc;strokeColor=#6c8ebf;" vertex="1" parent="Kq4fyCAR996_0g_bX0aU-1">
          <mxGeometry y="40" width="20" height="20" as="geometry" />
        </mxCell>
        <mxCell id="Kq4fyCAR996_0g_bX0aU-8" value="" style="rounded=0;whiteSpace=wrap;html=1;fillColor=#dae8fc;strokeColor=#6c8ebf;" vertex="1" parent="Kq4fyCAR996_0g_bX0aU-1">
          <mxGeometry x="20" y="40" width="20" height="20" as="geometry" />
        </mxCell>
        <mxCell id="Kq4fyCAR996_0g_bX0aU-9" value="" style="rounded=0;whiteSpace=wrap;html=1;fillColor=#dae8fc;strokeColor=#6c8ebf;" vertex="1" parent="Kq4fyCAR996_0g_bX0aU-1">
          <mxGeometry x="40" y="20" width="20" height="20" as="geometry" />
        </mxCell>
        <mxCell id="Kq4fyCAR996_0g_bX0aU-10" value="" style="rounded=0;whiteSpace=wrap;html=1;fillColor=#dae8fc;strokeColor=#6c8ebf;" vertex="1" parent="Kq4fyCAR996_0g_bX0aU-1">
          <mxGeometry x="40" width="20" height="20" as="geometry" />
        </mxCell>
        <mxCell id="Kq4fyCAR996_0g_bX0aU-11" value="" style="group;fillColor=#d5e8d4;strokeColor=#82b366;" vertex="1" connectable="0" parent="Kq4fyCAR996_0g_bX0aU-94">
          <mxGeometry x="40" y="80" width="60" height="60" as="geometry" />
        </mxCell>
        <mxCell id="Kq4fyCAR996_0g_bX0aU-12" value="" style="rounded=0;whiteSpace=wrap;html=1;fillColor=#d5e8d4;strokeColor=#82b366;" vertex="1" parent="Kq4fyCAR996_0g_bX0aU-11">
          <mxGeometry width="20" height="20" as="geometry" />
        </mxCell>
        <mxCell id="Kq4fyCAR996_0g_bX0aU-13" value="" style="rounded=0;whiteSpace=wrap;html=1;fillColor=#d5e8d4;strokeColor=#82b366;" vertex="1" parent="Kq4fyCAR996_0g_bX0aU-11">
          <mxGeometry x="20" width="20" height="20" as="geometry" />
        </mxCell>
        <mxCell id="Kq4fyCAR996_0g_bX0aU-14" value="" style="rounded=0;whiteSpace=wrap;html=1;fillColor=#d5e8d4;strokeColor=#82b366;" vertex="1" parent="Kq4fyCAR996_0g_bX0aU-11">
          <mxGeometry x="20" y="20" width="20" height="20" as="geometry" />
        </mxCell>
        <mxCell id="Kq4fyCAR996_0g_bX0aU-15" value="" style="rounded=0;whiteSpace=wrap;html=1;fillColor=#d5e8d4;strokeColor=#82b366;" vertex="1" parent="Kq4fyCAR996_0g_bX0aU-11">
          <mxGeometry y="20" width="20" height="20" as="geometry" />
        </mxCell>
        <mxCell id="Kq4fyCAR996_0g_bX0aU-16" value="" style="rounded=0;whiteSpace=wrap;html=1;fillColor=#d5e8d4;strokeColor=#82b366;" vertex="1" parent="Kq4fyCAR996_0g_bX0aU-11">
          <mxGeometry x="40" y="40" width="20" height="20" as="geometry" />
        </mxCell>
        <mxCell id="Kq4fyCAR996_0g_bX0aU-17" value="" style="rounded=0;whiteSpace=wrap;html=1;fillColor=#d5e8d4;strokeColor=#82b366;" vertex="1" parent="Kq4fyCAR996_0g_bX0aU-11">
          <mxGeometry y="40" width="20" height="20" as="geometry" />
        </mxCell>
        <mxCell id="Kq4fyCAR996_0g_bX0aU-18" value="" style="rounded=0;whiteSpace=wrap;html=1;fillColor=#d5e8d4;strokeColor=#82b366;" vertex="1" parent="Kq4fyCAR996_0g_bX0aU-11">
          <mxGeometry x="20" y="40" width="20" height="20" as="geometry" />
        </mxCell>
        <mxCell id="Kq4fyCAR996_0g_bX0aU-19" value="" style="rounded=0;whiteSpace=wrap;html=1;fillColor=#d5e8d4;strokeColor=#82b366;" vertex="1" parent="Kq4fyCAR996_0g_bX0aU-11">
          <mxGeometry x="40" y="20" width="20" height="20" as="geometry" />
        </mxCell>
        <mxCell id="Kq4fyCAR996_0g_bX0aU-20" value="" style="rounded=0;whiteSpace=wrap;html=1;fillColor=#d5e8d4;strokeColor=#82b366;" vertex="1" parent="Kq4fyCAR996_0g_bX0aU-11">
          <mxGeometry x="40" width="20" height="20" as="geometry" />
        </mxCell>
        <mxCell id="Kq4fyCAR996_0g_bX0aU-65" style="edgeStyle=orthogonalEdgeStyle;rounded=0;orthogonalLoop=1;jettySize=auto;html=1;exitX=1;exitY=0.5;exitDx=0;exitDy=0;entryX=0;entryY=0.5;entryDx=0;entryDy=0;" edge="1" parent="Kq4fyCAR996_0g_bX0aU-94" source="Kq4fyCAR996_0g_bX0aU-22" target="Kq4fyCAR996_0g_bX0aU-48">
          <mxGeometry relative="1" as="geometry" />
        </mxCell>
        <mxCell id="Kq4fyCAR996_0g_bX0aU-22" value="&lt;font face=&quot;Times New Roman&quot;&gt;&lt;span style=&quot;font-size: 18px;&quot;&gt;Multi-head&lt;/span&gt;&lt;/font&gt;&lt;div&gt;&lt;font face=&quot;Times New Roman&quot;&gt;&lt;span style=&quot;font-size: 18px;&quot;&gt;attention&lt;/span&gt;&lt;/font&gt;&lt;/div&gt;" style="rounded=1;whiteSpace=wrap;html=1;fillColor=#fff2cc;strokeColor=#d6b656;" vertex="1" parent="Kq4fyCAR996_0g_bX0aU-94">
          <mxGeometry x="140" width="110" height="60" as="geometry" />
        </mxCell>
        <mxCell id="Kq4fyCAR996_0g_bX0aU-66" style="edgeStyle=orthogonalEdgeStyle;rounded=0;orthogonalLoop=1;jettySize=auto;html=1;exitX=1;exitY=0.5;exitDx=0;exitDy=0;entryX=0;entryY=0.5;entryDx=0;entryDy=0;" edge="1" parent="Kq4fyCAR996_0g_bX0aU-94" source="Kq4fyCAR996_0g_bX0aU-26" target="Kq4fyCAR996_0g_bX0aU-58">
          <mxGeometry relative="1" as="geometry" />
        </mxCell>
        <mxCell id="Kq4fyCAR996_0g_bX0aU-26" value="&lt;font face=&quot;Times New Roman&quot;&gt;&lt;span style=&quot;font-size: 18px;&quot;&gt;Multi-head&lt;/span&gt;&lt;/font&gt;&lt;div&gt;&lt;font face=&quot;Times New Roman&quot;&gt;&lt;span style=&quot;font-size: 18px;&quot;&gt;attention&lt;/span&gt;&lt;/font&gt;&lt;/div&gt;" style="rounded=1;whiteSpace=wrap;html=1;fillColor=#fff2cc;strokeColor=#d6b656;" vertex="1" parent="Kq4fyCAR996_0g_bX0aU-94">
          <mxGeometry x="140" y="80" width="110" height="60" as="geometry" />
        </mxCell>
        <mxCell id="Kq4fyCAR996_0g_bX0aU-37" value="" style="endArrow=classic;html=1;rounded=0;entryX=0;entryY=0.75;entryDx=0;entryDy=0;fillColor=#e1d5e7;strokeColor=#66CC00;" edge="1" parent="Kq4fyCAR996_0g_bX0aU-94" target="Kq4fyCAR996_0g_bX0aU-22">
          <mxGeometry width="50" height="50" relative="1" as="geometry">
            <mxPoint x="100" y="110" as="sourcePoint" />
            <mxPoint x="150" y="60" as="targetPoint" />
          </mxGeometry>
        </mxCell>
        <mxCell id="Kq4fyCAR996_0g_bX0aU-39" style="edgeStyle=orthogonalEdgeStyle;rounded=0;orthogonalLoop=1;jettySize=auto;html=1;exitX=1;exitY=0.5;exitDx=0;exitDy=0;entryX=0;entryY=0.5;entryDx=0;entryDy=0;fillColor=#cdeb8b;strokeColor=#0000FF;" edge="1" parent="Kq4fyCAR996_0g_bX0aU-94" source="Kq4fyCAR996_0g_bX0aU-9" target="Kq4fyCAR996_0g_bX0aU-22">
          <mxGeometry relative="1" as="geometry" />
        </mxCell>
        <mxCell id="Kq4fyCAR996_0g_bX0aU-42" style="edgeStyle=orthogonalEdgeStyle;rounded=0;orthogonalLoop=1;jettySize=auto;html=1;exitX=1;exitY=0.5;exitDx=0;exitDy=0;entryX=0;entryY=0.5;entryDx=0;entryDy=0;fillColor=#cdeb8b;strokeColor=#0000FF;" edge="1" parent="Kq4fyCAR996_0g_bX0aU-94" source="Kq4fyCAR996_0g_bX0aU-19" target="Kq4fyCAR996_0g_bX0aU-26">
          <mxGeometry relative="1" as="geometry" />
        </mxCell>
        <mxCell id="Kq4fyCAR996_0g_bX0aU-43" value="" style="endArrow=classic;html=1;rounded=0;exitX=1;exitY=0.5;exitDx=0;exitDy=0;entryX=0;entryY=0.25;entryDx=0;entryDy=0;fillColor=#e1d5e7;strokeColor=#66CC00;" edge="1" parent="Kq4fyCAR996_0g_bX0aU-94" source="Kq4fyCAR996_0g_bX0aU-9" target="Kq4fyCAR996_0g_bX0aU-26">
          <mxGeometry width="50" height="50" relative="1" as="geometry">
            <mxPoint x="110" y="80" as="sourcePoint" />
            <mxPoint x="160" y="30" as="targetPoint" />
          </mxGeometry>
        </mxCell>
        <mxCell id="Kq4fyCAR996_0g_bX0aU-44" value="" style="group;fillColor=#dae8fc;strokeColor=#6c8ebf;gradientColor=#7ea6e0;" vertex="1" connectable="0" parent="Kq4fyCAR996_0g_bX0aU-94">
          <mxGeometry x="280" width="60" height="60" as="geometry" />
        </mxCell>
        <mxCell id="Kq4fyCAR996_0g_bX0aU-45" value="" style="rounded=0;whiteSpace=wrap;html=1;fillColor=#dae8fc;strokeColor=#6c8ebf;gradientColor=#7ea6e0;" vertex="1" parent="Kq4fyCAR996_0g_bX0aU-44">
          <mxGeometry width="20" height="20" as="geometry" />
        </mxCell>
        <mxCell id="Kq4fyCAR996_0g_bX0aU-46" value="" style="rounded=0;whiteSpace=wrap;html=1;fillColor=#dae8fc;strokeColor=#6c8ebf;gradientColor=#7ea6e0;" vertex="1" parent="Kq4fyCAR996_0g_bX0aU-44">
          <mxGeometry x="20" width="20" height="20" as="geometry" />
        </mxCell>
        <mxCell id="Kq4fyCAR996_0g_bX0aU-47" value="" style="rounded=0;whiteSpace=wrap;html=1;fillColor=#dae8fc;strokeColor=#6c8ebf;gradientColor=#7ea6e0;" vertex="1" parent="Kq4fyCAR996_0g_bX0aU-44">
          <mxGeometry x="20" y="20" width="20" height="20" as="geometry" />
        </mxCell>
        <mxCell id="Kq4fyCAR996_0g_bX0aU-48" value="" style="rounded=0;whiteSpace=wrap;html=1;fillColor=#dae8fc;strokeColor=#6c8ebf;gradientColor=#7ea6e0;" vertex="1" parent="Kq4fyCAR996_0g_bX0aU-44">
          <mxGeometry y="20" width="20" height="20" as="geometry" />
        </mxCell>
        <mxCell id="Kq4fyCAR996_0g_bX0aU-49" value="" style="rounded=0;whiteSpace=wrap;html=1;fillColor=#dae8fc;strokeColor=#6c8ebf;gradientColor=#7ea6e0;" vertex="1" parent="Kq4fyCAR996_0g_bX0aU-44">
          <mxGeometry x="40" y="40" width="20" height="20" as="geometry" />
        </mxCell>
        <mxCell id="Kq4fyCAR996_0g_bX0aU-50" value="" style="rounded=0;whiteSpace=wrap;html=1;fillColor=#dae8fc;strokeColor=#6c8ebf;gradientColor=#7ea6e0;" vertex="1" parent="Kq4fyCAR996_0g_bX0aU-44">
          <mxGeometry y="40" width="20" height="20" as="geometry" />
        </mxCell>
        <mxCell id="Kq4fyCAR996_0g_bX0aU-51" value="" style="rounded=0;whiteSpace=wrap;html=1;fillColor=#dae8fc;strokeColor=#6c8ebf;gradientColor=#7ea6e0;" vertex="1" parent="Kq4fyCAR996_0g_bX0aU-44">
          <mxGeometry x="20" y="40" width="20" height="20" as="geometry" />
        </mxCell>
        <mxCell id="Kq4fyCAR996_0g_bX0aU-52" value="" style="rounded=0;whiteSpace=wrap;html=1;fillColor=#dae8fc;strokeColor=#6c8ebf;gradientColor=#7ea6e0;" vertex="1" parent="Kq4fyCAR996_0g_bX0aU-44">
          <mxGeometry x="40" y="20" width="20" height="20" as="geometry" />
        </mxCell>
        <mxCell id="Kq4fyCAR996_0g_bX0aU-53" value="" style="rounded=0;whiteSpace=wrap;html=1;fillColor=#dae8fc;strokeColor=#6c8ebf;gradientColor=#7ea6e0;" vertex="1" parent="Kq4fyCAR996_0g_bX0aU-44">
          <mxGeometry x="40" width="20" height="20" as="geometry" />
        </mxCell>
        <mxCell id="Kq4fyCAR996_0g_bX0aU-54" value="" style="group;fillColor=#d5e8d4;strokeColor=#82b366;gradientColor=#97d077;" vertex="1" connectable="0" parent="Kq4fyCAR996_0g_bX0aU-94">
          <mxGeometry x="280" y="80" width="60" height="60" as="geometry" />
        </mxCell>
        <mxCell id="Kq4fyCAR996_0g_bX0aU-55" value="" style="rounded=0;whiteSpace=wrap;html=1;fillColor=#d5e8d4;strokeColor=#82b366;gradientColor=#97d077;" vertex="1" parent="Kq4fyCAR996_0g_bX0aU-54">
          <mxGeometry width="20" height="20" as="geometry" />
        </mxCell>
        <mxCell id="Kq4fyCAR996_0g_bX0aU-56" value="" style="rounded=0;whiteSpace=wrap;html=1;fillColor=#d5e8d4;strokeColor=#82b366;gradientColor=#97d077;" vertex="1" parent="Kq4fyCAR996_0g_bX0aU-54">
          <mxGeometry x="20" width="20" height="20" as="geometry" />
        </mxCell>
        <mxCell id="Kq4fyCAR996_0g_bX0aU-57" value="" style="rounded=0;whiteSpace=wrap;html=1;fillColor=#d5e8d4;strokeColor=#82b366;gradientColor=#97d077;" vertex="1" parent="Kq4fyCAR996_0g_bX0aU-54">
          <mxGeometry x="20" y="20" width="20" height="20" as="geometry" />
        </mxCell>
        <mxCell id="Kq4fyCAR996_0g_bX0aU-58" value="" style="rounded=0;whiteSpace=wrap;html=1;fillColor=#d5e8d4;strokeColor=#82b366;gradientColor=#97d077;" vertex="1" parent="Kq4fyCAR996_0g_bX0aU-54">
          <mxGeometry y="20" width="20" height="20" as="geometry" />
        </mxCell>
        <mxCell id="Kq4fyCAR996_0g_bX0aU-59" value="" style="rounded=0;whiteSpace=wrap;html=1;fillColor=#d5e8d4;strokeColor=#82b366;gradientColor=#97d077;" vertex="1" parent="Kq4fyCAR996_0g_bX0aU-54">
          <mxGeometry x="40" y="40" width="20" height="20" as="geometry" />
        </mxCell>
        <mxCell id="Kq4fyCAR996_0g_bX0aU-60" value="" style="rounded=0;whiteSpace=wrap;html=1;fillColor=#d5e8d4;strokeColor=#82b366;gradientColor=#97d077;" vertex="1" parent="Kq4fyCAR996_0g_bX0aU-54">
          <mxGeometry y="40" width="20" height="20" as="geometry" />
        </mxCell>
        <mxCell id="Kq4fyCAR996_0g_bX0aU-61" value="" style="rounded=0;whiteSpace=wrap;html=1;fillColor=#d5e8d4;strokeColor=#82b366;gradientColor=#97d077;" vertex="1" parent="Kq4fyCAR996_0g_bX0aU-54">
          <mxGeometry x="20" y="40" width="20" height="20" as="geometry" />
        </mxCell>
        <mxCell id="Kq4fyCAR996_0g_bX0aU-62" value="" style="rounded=0;whiteSpace=wrap;html=1;fillColor=#d5e8d4;strokeColor=#82b366;gradientColor=#97d077;" vertex="1" parent="Kq4fyCAR996_0g_bX0aU-54">
          <mxGeometry x="40" y="20" width="20" height="20" as="geometry" />
        </mxCell>
        <mxCell id="Kq4fyCAR996_0g_bX0aU-63" value="" style="rounded=0;whiteSpace=wrap;html=1;fillColor=#d5e8d4;strokeColor=#82b366;gradientColor=#97d077;" vertex="1" parent="Kq4fyCAR996_0g_bX0aU-54">
          <mxGeometry x="40" width="20" height="20" as="geometry" />
        </mxCell>
        <mxCell id="Kq4fyCAR996_0g_bX0aU-67" value="" style="group;fillColor=#fff2cc;strokeColor=#d6b656;gradientColor=#ffd966;" vertex="1" connectable="0" parent="Kq4fyCAR996_0g_bX0aU-94">
          <mxGeometry x="380" y="40" width="60" height="60" as="geometry" />
        </mxCell>
        <mxCell id="Kq4fyCAR996_0g_bX0aU-68" value="" style="rounded=0;whiteSpace=wrap;html=1;fillColor=#fff2cc;strokeColor=#d6b656;gradientColor=#ffd966;" vertex="1" parent="Kq4fyCAR996_0g_bX0aU-67">
          <mxGeometry width="20" height="20" as="geometry" />
        </mxCell>
        <mxCell id="Kq4fyCAR996_0g_bX0aU-69" value="" style="rounded=0;whiteSpace=wrap;html=1;fillColor=#fff2cc;strokeColor=#d6b656;gradientColor=#ffd966;" vertex="1" parent="Kq4fyCAR996_0g_bX0aU-67">
          <mxGeometry x="20" width="20" height="20" as="geometry" />
        </mxCell>
        <mxCell id="Kq4fyCAR996_0g_bX0aU-70" value="" style="rounded=0;whiteSpace=wrap;html=1;fillColor=#fff2cc;strokeColor=#d6b656;gradientColor=#ffd966;" vertex="1" parent="Kq4fyCAR996_0g_bX0aU-67">
          <mxGeometry x="20" y="20" width="20" height="20" as="geometry" />
        </mxCell>
        <mxCell id="Kq4fyCAR996_0g_bX0aU-71" value="" style="rounded=0;whiteSpace=wrap;html=1;fillColor=#fff2cc;strokeColor=#d6b656;gradientColor=#ffd966;" vertex="1" parent="Kq4fyCAR996_0g_bX0aU-67">
          <mxGeometry y="20" width="20" height="20" as="geometry" />
        </mxCell>
        <mxCell id="Kq4fyCAR996_0g_bX0aU-72" value="" style="rounded=0;whiteSpace=wrap;html=1;fillColor=#fff2cc;strokeColor=#d6b656;gradientColor=#ffd966;" vertex="1" parent="Kq4fyCAR996_0g_bX0aU-67">
          <mxGeometry x="40" y="40" width="20" height="20" as="geometry" />
        </mxCell>
        <mxCell id="Kq4fyCAR996_0g_bX0aU-73" value="" style="rounded=0;whiteSpace=wrap;html=1;fillColor=#fff2cc;strokeColor=#d6b656;gradientColor=#ffd966;" vertex="1" parent="Kq4fyCAR996_0g_bX0aU-67">
          <mxGeometry y="40" width="20" height="20" as="geometry" />
        </mxCell>
        <mxCell id="Kq4fyCAR996_0g_bX0aU-74" value="" style="rounded=0;whiteSpace=wrap;html=1;fillColor=#fff2cc;strokeColor=#d6b656;gradientColor=#ffd966;" vertex="1" parent="Kq4fyCAR996_0g_bX0aU-67">
          <mxGeometry x="20" y="40" width="20" height="20" as="geometry" />
        </mxCell>
        <mxCell id="Kq4fyCAR996_0g_bX0aU-75" value="" style="rounded=0;whiteSpace=wrap;html=1;fillColor=#fff2cc;strokeColor=#d6b656;gradientColor=#ffd966;" vertex="1" parent="Kq4fyCAR996_0g_bX0aU-67">
          <mxGeometry x="40" y="20" width="20" height="20" as="geometry" />
        </mxCell>
        <mxCell id="Kq4fyCAR996_0g_bX0aU-76" value="" style="rounded=0;whiteSpace=wrap;html=1;fillColor=#fff2cc;strokeColor=#d6b656;gradientColor=#ffd966;" vertex="1" parent="Kq4fyCAR996_0g_bX0aU-67">
          <mxGeometry x="40" width="20" height="20" as="geometry" />
        </mxCell>
        <mxCell id="Kq4fyCAR996_0g_bX0aU-77" value="" style="endArrow=classic;html=1;rounded=0;entryX=0;entryY=0.5;entryDx=0;entryDy=0;" edge="1" parent="Kq4fyCAR996_0g_bX0aU-94" target="Kq4fyCAR996_0g_bX0aU-71">
          <mxGeometry width="50" height="50" relative="1" as="geometry">
            <mxPoint x="340" y="30" as="sourcePoint" />
            <mxPoint x="360" y="40" as="targetPoint" />
          </mxGeometry>
        </mxCell>
        <mxCell id="Kq4fyCAR996_0g_bX0aU-79" value="" style="endArrow=classic;html=1;rounded=0;exitX=1;exitY=0.5;exitDx=0;exitDy=0;entryX=0;entryY=0.5;entryDx=0;entryDy=0;" edge="1" parent="Kq4fyCAR996_0g_bX0aU-94" source="Kq4fyCAR996_0g_bX0aU-62" target="Kq4fyCAR996_0g_bX0aU-71">
          <mxGeometry width="50" height="50" relative="1" as="geometry">
            <mxPoint x="370" y="160" as="sourcePoint" />
            <mxPoint x="420" y="110" as="targetPoint" />
          </mxGeometry>
        </mxCell>
        <mxCell id="Kq4fyCAR996_0g_bX0aU-80" value="+" style="rounded=1;whiteSpace=wrap;html=1;fillColor=none;strokeColor=none;" vertex="1" parent="Kq4fyCAR996_0g_bX0aU-94">
          <mxGeometry x="350" y="60" width="20" height="20" as="geometry" />
        </mxCell>
        <mxCell id="Kq4fyCAR996_0g_bX0aU-81" value="&lt;span style=&quot;font-size: 14px;&quot;&gt;$${\mathbf{X} }&#39; _h$$&lt;/span&gt;" style="rounded=1;whiteSpace=wrap;html=1;fillColor=none;strokeColor=none;" vertex="1" parent="Kq4fyCAR996_0g_bX0aU-94">
          <mxGeometry y="17.5" width="40" height="25" as="geometry" />
        </mxCell>
        <mxCell id="Kq4fyCAR996_0g_bX0aU-82" value="&lt;span style=&quot;font-size: 14px;&quot;&gt;$${\mathbf{X} }&#39; _l$$&lt;/span&gt;" style="rounded=1;whiteSpace=wrap;html=1;fillColor=none;strokeColor=none;fontStyle=1" vertex="1" parent="Kq4fyCAR996_0g_bX0aU-94">
          <mxGeometry y="97.5" width="40" height="25" as="geometry" />
        </mxCell>
        <mxCell id="Kq4fyCAR996_0g_bX0aU-83" value="&lt;span style=&quot;font-size: 14px;&quot;&gt;$${\mathbf{F} } _l$$&lt;/span&gt;" style="rounded=1;whiteSpace=wrap;html=1;fillColor=none;strokeColor=none;fontStyle=1" vertex="1" parent="Kq4fyCAR996_0g_bX0aU-94">
          <mxGeometry x="250" y="80" width="30" height="25" as="geometry" />
        </mxCell>
        <mxCell id="Kq4fyCAR996_0g_bX0aU-84" value="&lt;span style=&quot;font-size: 14px;&quot;&gt;$${\mathbf{F} } _h$$&lt;/span&gt;" style="rounded=1;whiteSpace=wrap;html=1;fillColor=none;strokeColor=none;" vertex="1" parent="Kq4fyCAR996_0g_bX0aU-94">
          <mxGeometry x="250" width="30" height="25" as="geometry" />
        </mxCell>
        <mxCell id="Kq4fyCAR996_0g_bX0aU-85" value="&lt;span style=&quot;font-size: 14px;&quot;&gt;$$w _l$$&lt;/span&gt;" style="rounded=1;whiteSpace=wrap;html=1;fillColor=none;strokeColor=none;fontStyle=1" vertex="1" parent="Kq4fyCAR996_0g_bX0aU-94">
          <mxGeometry x="345" y="97.5" width="30" height="25" as="geometry" />
        </mxCell>
        <mxCell id="Kq4fyCAR996_0g_bX0aU-86" value="&lt;span style=&quot;font-size: 14px;&quot;&gt;$$w _h$$&lt;/span&gt;" style="rounded=1;whiteSpace=wrap;html=1;fillColor=none;strokeColor=none;fontStyle=1" vertex="1" parent="Kq4fyCAR996_0g_bX0aU-94">
          <mxGeometry x="345" y="17.5" width="30" height="25" as="geometry" />
        </mxCell>
        <mxCell id="Kq4fyCAR996_0g_bX0aU-87" value="&lt;span style=&quot;font-size: 14px;&quot;&gt;$${\mathbf{F} } _v$$&lt;/span&gt;" style="rounded=1;whiteSpace=wrap;html=1;fillColor=none;strokeColor=none;fontStyle=1" vertex="1" parent="Kq4fyCAR996_0g_bX0aU-94">
          <mxGeometry x="395" y="100" width="30" height="25" as="geometry" />
        </mxCell>
      </root>
    </mxGraphModel>
  </diagram>
</mxfile>
